<mxfile host="app.diagrams.net" modified="2023-08-04T06:45:01.431Z" agent="Mozilla/5.0 (Macintosh; Intel Mac OS X 10_15_7) AppleWebKit/537.36 (KHTML, like Gecko) Chrome/106.0.0.0 Safari/537.36" version="21.6.6" etag="KVhkxmgQtgqsHzP7Hlnf" type="github">
  <diagram name="Page-1" id="59otQ6mDElivc-iyzYLr">
    <mxGraphModel>
      <root>
        <mxCell id="0" />
        <mxCell id="1" parent="0" />
      </root>
    </mxGraphModel>
  </diagram>
</mxfile>
